Coordinates
version=1
nRows=13
nColumns=34
inDegrees=yes

Units are S.I. units (second, meters, Newtons, ...)
If the header above contains a line with 'inDegrees', this indicates whether rotational values are in degrees (yes) or radians (no).

endheader
time	pelvis_tilt	pelvis_list	pelvis_rotation	pelvis_tx	pelvis_ty	pelvis_tz	hip_flexion_r	hip_adduction_r	hip_rotation_r	knee_angle_r	ankle_angle_r	subtalar_angle_r	mtp_angle_r	hip_flexion_l	hip_adduction_l	hip_rotation_l	knee_angle_l	ankle_angle_l	subtalar_angle_l	mtp_angle_l	lumbar_extension	lumbar_bending	lumbar_rotation	arm_flex_r	arm_add_r	arm_rot_r	elbow_flex_r	pro_sup_r	arm_flex_l	arm_add_l	arm_rot_l	elbow_flex_l	pro_sup_l
      1.88333330	     12.85145574	     -0.78066356	      4.19878723	    -10.11935995	      0.88282496	      0.51920447	    -23.90467643	      1.23099668	     -7.10603896	      0.00000000	     -7.69209536	    -26.27014788	      0.00000000	    -22.87688159	     -1.74367353	     -2.56758320	      0.00000000	     -2.68007912	    -21.02710191	      0.00000000	     -6.33776931	    -11.65395930	     25.11079818	   -232.25154212	   -104.06493266	     36.18306023	    109.80827095	     76.12604906	   -235.99629151	     14.54752120	     93.61653400	      2.67855631	     42.84778208
      1.90000000	     12.98976386	     -0.95172162	      4.42751045	    -10.11657825	      0.88256348	      0.51923907	    -23.21854871	      1.44150375	     -7.36690892	      1.82703806	     -7.64304467	    -26.97705975	      0.00000000	    -22.96201493	     -2.05123131	     -3.03862710	      0.00000000	     -2.64612068	    -21.30104636	      0.00000000	     -6.92125107	    -11.48311619	     24.94772678	   -232.54957718	   -104.08223463	     36.01570802	    109.82396677	     76.17794019	   -236.02062558	     14.60564261	     93.70998370	      3.20591881	     42.99192108
      1.91666670	     12.65128761	     -1.50734317	      3.83824033	    -10.11685971	      0.88266081	      0.51768603	    -21.63212531	      1.54670363	     -4.88440074	      4.07812778	    -10.17650637	    -32.12650788	      0.00000000	    -22.62142467	     -2.25359742	     -3.89941729	      0.00000000	     -2.69412881	    -21.77852855	      0.00000000	    -16.01462219	     -4.56205350	     40.37630742	   -277.94818155	   -142.23802272	    -12.75704815	    107.35374402	     55.67652191	   -249.47758159	      4.36010585	     22.05974132	     57.77141063	    109.57218027
      1.93333330	     12.32803835	     -1.50879940	      4.09398541	    -10.11629596	      0.88517915	      0.51777738	    -20.88706410	      1.62096491	     -4.79676039	      5.29210239	     -9.22927110	    -32.28583909	      0.00000000	    -22.48576024	     -2.42329425	     -3.47360091	      0.00000000	     -2.76179248	    -22.32152893	      0.00000000	    -16.53801363	     -3.93474333	     40.13580844	   -279.13949205	   -143.88518435	    -13.38900787	    107.26884572	     55.79076086	   -249.89440185	      1.73147664	     26.60420214	     59.81630183	    110.75202412
      1.95000000	     11.75082175	     -1.37751811	      4.39786493	    -10.11582183	      0.88626092	      0.51888388	    -19.92769986	      1.58666641	     -4.78858545	      6.31518204	     -8.07144961	    -32.30157945	      0.00000000	    -22.06008686	     -2.47913953	     -2.93734107	      0.00000000	     -2.18407153	    -21.83205493	      0.00000000	    -17.02800628	     -3.78432072	     40.04533184	   -278.91401376	   -145.40412825	    -14.04129826	    107.58518073	     55.90778499	   -250.62569078	      0.22188266	     29.03706664	     62.39180472	    111.33368292
      1.96666670	     11.22483296	     -1.24389924	      4.38630434	    -10.11615216	      0.88320464	      0.52103847	    -18.98684268	      1.48695793	     -4.38971801	      7.24829410	     -6.62974847	    -32.38427632	      0.00000000	    -21.65063786	     -2.41287059	     -2.61581537	      0.00000000	     -1.37367934	    -21.48126824	      0.00000000	    -17.59753574	     -3.83859357	     39.84793411	   -278.65418029	   -145.78907758	    -14.96304831	    107.91336307	     55.98163070	   -251.36580556	     -0.95526947	     30.36527080	     64.58519316	    111.64140786
      1.98333330	     10.72981236	     -1.31592981	      4.17303933	    -10.12021951	      0.87770630	      0.52388195	    -17.77650044	      1.56153185	     -3.94152692	      8.46851608	     -5.17231412	    -32.64856026	      0.00000000	    -21.12885652	     -2.50673901	     -2.48126072	      0.00000000	     -0.94467076	    -21.30921507	      0.00000000	    -18.38563829	     -3.91224773	     39.27664561	   -278.79260843	   -144.72195621	    -16.58251121	    107.79453709	     56.01074471	   -251.86253029	     -1.94514818	     30.78745269	     67.17759297	    111.81693892
      2.00000000	     10.55673224	     -1.50951166	      3.99193327	    -10.12533371	      0.87555948	      0.52668317	    -16.87705007	      1.84270816	     -3.72531402	      9.31081211	     -3.87990434	    -33.48288955	      0.00000000	    -20.77650756	     -2.76000733	     -2.30577754	      0.00000000	     -0.42921118	    -21.65056704	      0.00000000	    -19.52128156	     -3.92941605	     39.12017857	   -278.79230671	   -143.89990714	    -17.39704050	    107.87443510	     56.01761296	   -252.00824251	     -1.93709919	     30.82393546	     68.12027058	    111.84876430
      2.01666670	      8.85932418	     -1.58776181	      3.61661957	    -10.12323345	      0.87540742	      0.52910746	    -13.91105727	      1.82928340	     -3.07033411	     10.70999178	     -2.43113406	    -33.58608041	      0.00000000	    -18.08226223	     -2.74695586	     -2.30569360	      1.22518292	     -0.66925054	    -23.21399869	      0.00000000	    -19.29346452	     -3.77260698	     37.51850761	   -280.15496469	   -140.54491171	    -22.11295956	    108.83800981	     56.28478391	   -253.60639878	     -4.97713977	     30.43729471	     74.20168417	    112.06771741
      2.03333330	      7.76880872	     -1.46849656	      3.35432575	    -10.11267730	      0.87510844	      0.53146581	    -11.82457755	      1.72379704	     -2.54227386	     12.15833216	     -0.98456857	    -33.51667624	      0.00000000	    -16.30619971	     -2.65587959	     -2.53771683	      2.09480560	     -1.59558517	    -24.47889299	      0.00000000	    -19.37962189	     -4.14008551	     37.59149171	   -279.94847243	   -139.97222529	    -24.47693876	    108.74915552	     56.55936718	   -254.55744405	     -5.96259998	     30.77250309	     78.17214060	    112.27900526
      2.05000000	      6.48049869	     -1.23458248	      3.12370681	    -10.10165038	      0.87563813	      0.53327213	     -9.75085045	      1.46151060	     -2.13612974	     13.89633165	      0.67820635	    -32.93032207	      0.00000000	    -14.51781712	     -2.46420954	     -2.66178123	      3.00517385	     -2.48958182	    -26.15344742	      0.00000000	    -18.98780336	     -4.29045284	     38.09257518	   -279.42025625	   -140.98674166	    -25.86890907	    109.60330770	     56.86943940	   -256.71899025	     -7.21852651	     31.08294026	     82.89388028	    112.49955201
      2.06666670	      5.05814270	     -1.01448307	      3.12566903	    -10.09373679	      0.87791620	      0.53460701	     -7.86143207	      1.20256138	     -2.08366174	     15.61840071	      2.51783743	    -31.63611161	      0.00000000	    -12.81765790	     -2.32585798	     -2.32556817	      3.81722098	     -3.49655626	    -27.57838898	      0.00000000	    -18.30806998	     -4.22716642	     38.90596822	   -278.48179040	   -143.16584715	    -26.26608239	    110.42311202	     57.08983430	   -259.91760242	     -7.84694457	     31.26635430	     87.52723629	    112.85919196
      2.08333330	      4.67276577	     -0.91056075	      3.18508325	    -10.08566641	      0.87341796	      0.53661041	     -7.90399292	      1.20989483	     -1.95572673	     16.06702775	      3.25367142	    -31.02271347	      0.00000000	    -12.72473231	     -2.41817590	     -2.45284296	      4.21144210	     -4.04457689	    -28.05339923	      0.00000000	    -17.98349415	     -4.18812727	     40.10298769	   -277.44680580	   -144.51346671	    -26.88201929	    111.07779137	     57.12935192	   -262.63055034	     -7.53574904	     32.89814023	     89.83310074	    113.14030894
